HIERARCHY
ROOT teapot2
{
	OFFSET 0.000000 0.000000 0.000000
	CHANNELS 6 Xposition Yposition Zposition Yrotation Xrotation Zrotation
	End Site
	{
		OFFSET 0.000000 0.000000 0.000000
	}
}
MOTION
Frames: 192
Frame Time: 0.008333334
0.678252 3.914708 3.927810 -44.265200 6.363081 9.789590 
0.683828 3.911544 3.930331 -44.553680 6.510682 9.672189 
0.689530 3.909181 3.932424 -44.992830 6.410785 9.360040 
0.695450 3.906717 3.935427 -45.452940 6.521417 9.173900 
0.700396 3.904746 3.938090 -46.025150 6.557090 8.831051 
0.706094 3.902971 3.941196 -46.558350 6.619434 8.618320 
0.711906 3.902264 3.943265 -47.070130 6.698677 8.432626 
0.716765 3.901223 3.946078 -47.663150 6.888531 8.185594 
0.721618 3.900751 3.948661 -48.208440 6.956692 8.005233 
0.726865 3.899821 3.950920 -48.668580 7.090778 7.912769 
0.731414 3.899470 3.952754 -49.093690 7.189694 7.838295 
0.736046 3.899693 3.953954 -49.411040 7.321048 7.850883 
0.740657 3.899488 3.954938 -49.661220 7.429251 7.983460 
0.744446 3.899374 3.955560 -49.866640 7.530902 8.100041 
0.748655 3.899499 3.955998 -50.004150 7.651431 8.298445 
0.751876 3.899090 3.956261 -50.120640 7.778524 8.452505 
0.755342 3.898986 3.956223 -50.232480 7.778048 8.653722 
0.758837 3.899454 3.955962 -50.277470 7.824525 8.892110 
0.761681 3.899234 3.955711 -50.388550 7.831788 9.098329 
0.764195 3.899101 3.955679 -50.508970 7.853616 9.306137 
0.766808 3.899046 3.955574 -50.621640 7.926000 9.477253 
0.769407 3.899078 3.955046 -50.734410 7.920738 9.653428 
0.772185 3.899260 3.954918 -50.865510 7.926162 9.835114 
0.774614 3.898807 3.954282 -51.036040 7.898666 9.972092 
0.777062 3.898856 3.953580 -51.205720 7.851281 10.094440 
0.779365 3.898753 3.952722 -51.337800 7.880696 10.237900 
0.781757 3.898373 3.951828 -51.508940 7.890735 10.332660 
0.783961 3.897899 3.950751 -51.662720 7.908422 10.441520 
0.786145 3.898228 3.950087 -51.816190 7.855510 10.436050 
0.787936 3.897368 3.948802 -51.979580 7.907431 10.423720 
0.789875 3.897981 3.948273 -52.080350 7.764465 10.425060 
0.791850 3.897794 3.946966 -52.292390 7.749340 10.365720 
0.793949 3.897358 3.945624 -52.454410 7.841227 10.237240 
0.795326 3.896844 3.944852 -52.622860 7.800010 10.114530 
0.796584 3.896847 3.943824 -52.784700 7.828145 9.960109 
0.797900 3.896775 3.942752 -52.963010 7.864132 9.820127 
0.798510 3.896466 3.942060 -53.121430 7.901122 9.719563 
0.797904 3.896345 3.941211 -53.373780 7.919852 9.542613 
0.797427 3.896323 3.940436 -53.577330 7.908896 9.422586 
0.797241 3.896550 3.939788 -53.769840 7.823978 9.288649 
0.795860 3.896232 3.937788 -53.951450 8.020370 9.123959 
0.795006 3.897715 3.937322 -54.064970 7.785059 9.034756 
0.793056 3.898685 3.936795 -54.242430 7.612203 8.982961 
0.791224 3.899195 3.936302 -54.348330 7.705116 8.871341 
0.788609 3.900429 3.936125 -54.493900 7.586897 8.826101 
0.785632 3.901502 3.935841 -54.637210 7.426132 8.718908 
0.782773 3.902485 3.935672 -54.746430 7.336310 8.654297 
0.779617 3.903772 3.935305 -54.855530 7.116513 8.586452 
0.776837 3.905022 3.935574 -54.914890 7.116754 8.514028 
0.773537 3.905126 3.935279 -55.010860 7.088477 8.384818 
0.769410 3.906266 3.935777 -55.077240 7.006784 8.314198 
0.765484 3.907039 3.936533 -55.300420 6.845563 8.222782 
0.761465 3.907745 3.936936 -55.396390 6.858118 8.109214 
0.757534 3.910014 3.936805 -55.409000 6.833900 8.098152 
0.753050 3.909932 3.937381 -55.471340 7.019216 7.942314 
0.749105 3.910946 3.938414 -55.616730 6.477243 7.870956 
0.745953 3.912277 3.939265 -55.533540 6.701699 7.816308 
0.741714 3.913137 3.939809 -55.550480 6.654227 7.750336 
0.738048 3.914111 3.940344 -55.577180 6.546969 7.633507 
0.733650 3.914855 3.941967 -55.742610 6.237762 7.504530 
0.730710 3.915236 3.942359 -55.569210 6.387392 7.427010 
0.727610 3.915727 3.942398 -55.478150 6.295462 7.371898 
0.724576 3.915641 3.943144 -55.422760 6.537395 7.335439 
0.721337 3.915654 3.943908 -55.387630 6.604440 7.285312 
0.718644 3.916617 3.944874 -55.297490 6.362746 7.284327 
0.714885 3.916849 3.945597 -55.341280 6.217817 7.294974 
0.712952 3.916167 3.946736 -55.272340 6.480649 7.164448 
0.710703 3.916003 3.947562 -55.290590 6.450665 7.095142 
0.708385 3.916222 3.949525 -55.362950 6.241200 7.104694 
0.706693 3.915992 3.949943 -55.239140 6.310273 7.081417 
0.704514 3.914608 3.951118 -55.269500 6.578477 6.976293 
0.702900 3.914296 3.952553 -55.242800 6.633586 6.954699 
0.700948 3.914513 3.953612 -55.248050 6.532606 6.985659 
0.699277 3.914701 3.956223 -55.301030 6.397743 6.994453 
0.698485 3.914889 3.957288 -55.231380 6.381938 7.013671 
0.698783 3.915335 3.959527 -55.063080 6.292509 7.021698 
0.697838 3.914649 3.960200 -55.052550 6.502665 6.967613 
0.696874 3.913988 3.960946 -55.033510 6.689350 6.916620 
0.696346 3.914052 3.961902 -54.987850 6.712891 6.876175 
0.695863 3.913944 3.962765 -54.920230 6.744123 6.794298 
0.695585 3.914026 3.963775 -54.897460 6.754776 6.745901 
0.695019 3.914078 3.964563 -54.865140 6.803889 6.654500 
0.694907 3.914176 3.965025 -54.815160 6.830595 6.530598 
0.694639 3.914201 3.965236 -54.756840 6.865372 6.436615 
0.694387 3.914020 3.965240 -54.692290 6.872962 6.331295 
0.694347 3.913536 3.964930 -54.572940 6.902942 6.250915 
0.694280 3.912551 3.963930 -54.464660 6.907568 6.186856 
0.695867 3.910655 3.962255 -54.154940 6.996779 6.060715 
0.696740 3.908889 3.961049 -53.956540 6.997975 5.984640 
0.698328 3.907056 3.958838 -53.684080 6.986821 5.946645 
0.699992 3.905453 3.955491 -53.338810 7.202078 5.942280 
0.702474 3.901725 3.954455 -52.999790 7.391071 5.813351 
0.703094 3.897871 3.949404 -52.802280 7.545366 5.739691 
0.705604 3.894551 3.945112 -52.446620 7.483466 5.757493 
0.708988 3.890050 3.942865 -52.050230 7.777100 5.692278 
0.712357 3.885486 3.937744 -51.523990 7.950492 5.647711 
0.715519 3.880389 3.932093 -51.168270 8.017979 5.653347 
0.718063 3.875162 3.927125 -50.753270 8.142537 5.656177 
0.721520 3.870287 3.922111 -50.275090 8.474714 5.645206 
0.725459 3.865021 3.917645 -49.882320 8.538577 5.547122 
0.728372 3.859275 3.912646 -49.555150 8.679013 5.521825 
0.732072 3.853190 3.907792 -49.304020 8.787259 5.374468 
0.736123 3.846946 3.904502 -48.993410 8.989469 5.082216 
0.740097 3.841318 3.900091 -48.750670 8.997547 4.957538 
0.743903 3.834537 3.896539 -48.542660 9.344121 4.692968 
0.747270 3.828881 3.893904 -48.424560 9.344227 4.470615 
0.751007 3.822442 3.892030 -48.379820 9.471277 4.189908 
0.755587 3.817222 3.888718 -48.207730 9.402850 3.941576 
0.758720 3.812246 3.885668 -48.084380 9.423698 3.861892 
0.763272 3.805879 3.885348 -47.996190 9.464732 3.500742 
0.767294 3.801600 3.882186 -47.942050 9.379723 3.373265 
0.771934 3.795760 3.880776 -47.882200 9.438007 3.172796 
0.774680 3.790934 3.880177 -47.880160 9.512435 3.071729 
0.778582 3.785947 3.879972 -47.984920 9.484747 2.882872 
0.782861 3.782575 3.875687 -47.893010 9.348964 2.934248 
0.786533 3.777854 3.875269 -48.039400 9.199918 2.802941 
0.789498 3.774077 3.873200 -48.098510 9.287737 2.842791 
0.792521 3.769674 3.873790 -48.377500 9.277874 2.733863 
0.795160 3.765043 3.873632 -48.624880 9.397895 2.658313 
0.797977 3.760911 3.873288 -48.745880 9.342319 2.740810 
0.800112 3.757974 3.872977 -48.930540 9.297788 2.868439 
0.801898 3.755578 3.873109 -49.070980 9.240712 2.994449 
0.802966 3.754004 3.872373 -49.189880 9.041157 3.206587 
0.804513 3.751789 3.871248 -49.151060 9.167918 3.464244 
0.805815 3.749803 3.870086 -49.157990 9.166292 3.708504 
0.806441 3.747012 3.869581 -49.117430 9.330547 3.866454 
0.806766 3.744709 3.868770 -49.031590 9.328448 4.139654 
0.806647 3.743140 3.868010 -48.940460 9.229009 4.443662 
0.806995 3.741118 3.867185 -48.885560 9.211681 4.629158 
0.806800 3.739491 3.866441 -48.814000 9.168946 4.822993 
0.806811 3.739405 3.866057 -48.809110 9.201747 4.848096 
0.806340 3.740289 3.865351 -48.819920 9.291396 4.879848 
0.805986 3.740598 3.865163 -48.865720 9.380821 4.860541 
0.805445 3.741378 3.863873 -48.826810 9.438034 4.901561 
0.804976 3.741337 3.863378 -48.800510 9.466783 4.906113 
0.804493 3.741079 3.862592 -48.771390 9.451577 4.908737 
0.804207 3.740815 3.861633 -48.731600 9.486635 4.871442 
0.803659 3.740621 3.861377 -48.737980 9.489659 4.855265 
0.803916 3.740706 3.860775 -48.672610 9.488844 4.863569 
0.803552 3.740495 3.860565 -48.689270 9.468272 4.821124 
0.802445 3.739383 3.861393 -48.881840 9.484185 4.691612 
0.802229 3.739626 3.860593 -48.857210 9.423594 4.708277 
0.802036 3.739488 3.860818 -48.917300 9.372517 4.630655 
0.801906 3.739252 3.861212 -48.994600 9.303735 4.527609 
0.801980 3.738863 3.862011 -49.093990 9.212963 4.426520 
0.801772 3.738342 3.863048 -49.202240 9.110971 4.330303 
0.801719 3.737572 3.864585 -49.346800 8.961034 4.197569 
0.802105 3.736789 3.866131 -49.447020 8.889312 4.067121 
0.802321 3.735803 3.867871 -49.566530 8.734383 3.932441 
0.802594 3.734673 3.870345 -49.771270 8.573293 3.771449 
0.802730 3.732779 3.873510 -49.978490 8.675508 3.530323 
0.803376 3.733135 3.874819 -50.143680 8.323917 3.436547 
0.804187 3.732023 3.877766 -50.316440 8.388921 3.254954 
0.804675 3.731427 3.879710 -50.567020 8.217269 3.081827 
0.805958 3.732004 3.881084 -50.691440 7.903068 3.011935 
0.807167 3.731358 3.883953 -50.911130 7.847785 2.862115 
0.808972 3.731172 3.885693 -51.067630 7.871172 2.723633 
0.810099 3.731090 3.886785 -51.195190 7.813897 2.683616 
0.812811 3.729623 3.888976 -51.268460 8.114940 2.530097 
0.814606 3.729062 3.890578 -51.408140 8.047373 2.450721 
0.816464 3.728985 3.891613 -51.527440 8.060684 2.397076 
0.817809 3.728429 3.892473 -51.690800 7.959442 2.292720 
0.819474 3.728261 3.893322 -51.783330 7.923887 2.255145 
0.821447 3.728281 3.894327 -51.862340 7.845026 2.226201 
0.822754 3.728293 3.895217 -52.000730 7.686281 2.188030 
0.824767 3.727621 3.896261 -52.070040 7.781619 2.076397 
0.826287 3.727047 3.897410 -52.180450 7.671557 1.975790 
0.828010 3.726990 3.898461 -52.339260 7.450756 1.916736 
0.830007 3.726934 3.898742 -52.346160 7.505643 1.874636 
0.831915 3.726345 3.899510 -52.452090 7.275458 1.776498 
0.833642 3.725858 3.900547 -52.504940 7.340616 1.708387 
0.834977 3.725475 3.900974 -52.613920 7.239157 1.631972 
0.836716 3.724936 3.901964 -52.661470 7.306587 1.551136 
0.838426 3.724817 3.902510 -52.711120 7.195941 1.494979 
0.839875 3.724680 3.902496 -52.742890 7.233839 1.477331 
0.841660 3.724355 3.903005 -52.797090 7.140198 1.406828 
0.843074 3.724043 3.903455 -52.852690 7.088887 1.376580 
0.844403 3.723267 3.904636 -52.980960 6.988987 1.253734 
0.845942 3.723692 3.904660 -52.964630 6.849801 1.263367 
0.847790 3.723657 3.905207 -52.965850 6.755435 1.241599 
0.849060 3.723513 3.905513 -52.996340 6.750006 1.189515 
0.849989 3.723446 3.905924 -53.019440 6.715112 1.162796 
0.851236 3.723203 3.906537 -53.069700 6.708278 1.083679 
0.852224 3.723083 3.907007 -53.099300 6.696388 1.035623 
0.853471 3.722804 3.907792 -53.111970 6.668190 0.968490 
0.854522 3.722926 3.908152 -53.156100 6.670275 0.926632 
0.855548 3.722900 3.908902 -53.209230 6.654594 0.890603 
0.856427 3.722151 3.909792 -53.282230 6.646557 0.773530 
0.857156 3.721905 3.910503 -53.350490 6.613289 0.736764 
0.858098 3.721766 3.911184 -53.414730 6.577271 0.679890 
0.858913 3.721809 3.911729 -53.455510 6.549208 0.624295 
0.859711 3.721413 3.912245 -53.462490 6.569518 0.598108 
